<?xml version="1.0" encoding="UTF-8" standalone="no"?>
<!-- Created with Inkscape (http://www.inkscape.org/) -->

<svg
   xmlns:dc="http://purl.org/dc/elements/1.1/"
   xmlns:cc="http://creativecommons.org/ns#"
   xmlns:rdf="http://www.w3.org/1999/02/22-rdf-syntax-ns#"
   xmlns:svg="http://www.w3.org/2000/svg"
   xmlns="http://www.w3.org/2000/svg"
   xmlns:sodipodi="http://sodipodi.sourceforge.net/DTD/sodipodi-0.dtd"
   xmlns:inkscape="http://www.inkscape.org/namespaces/inkscape"
   width="744.09448819"
   height="1052.3622047"
   id="svg2"
   version="1.1"
   inkscape:version="0.48.0 r9654"
   sodipodi:docname="New document 1">
  <defs
     id="defs4" />
  <sodipodi:namedview
     id="base"
     pagecolor="#ffffff"
     bordercolor="#666666"
     borderopacity="1.0"
     inkscape:pageopacity="0.0"
     inkscape:pageshadow="2"
     inkscape:zoom="0.98994949"
     inkscape:cx="96.310866"
     inkscape:cy="843.24881"
     inkscape:document-units="px"
     inkscape:current-layer="layer1"
     showgrid="false"
     inkscape:window-width="1138"
     inkscape:window-height="725"
     inkscape:window-x="0"
     inkscape:window-y="0"
     inkscape:window-maximized="0" />
  <metadata
     id="metadata7">
    <rdf:RDF>
      <cc:Work
         rdf:about="">
        <dc:format>image/svg+xml</dc:format>
        <dc:type
           rdf:resource="http://purl.org/dc/dcmitype/StillImage" />
        <dc:title></dc:title>
      </cc:Work>
    </rdf:RDF>
  </metadata>
  <g
     inkscape:label="Layer 1"
     inkscape:groupmode="layer"
     id="layer1">
    <path
       style="fill:#000000;stroke:#000000;stroke-width:0.46555015px;stroke-linecap:butt;stroke-linejoin:miter;stroke-opacity:1"
       d="m 146.63657,-27.943408 -15.5419,34.0611553 c -7.98962,15.0940837 -16.15708,33.6290607 -20.53272,48.5486177 3.46959,6.284247 4.19632,11.720738 6.88074,18.374842 1.31782,5.85014 7.38364,9.726863 4.05901,15.542672 -1.22205,6.442318 -3.58218,12.686121 -6.18562,18.722021 -2.01833,3.50196 -6.48896,6.47988 -9.6286,9.55842 -2.90255,0.63503 -5.22909,-5.10378 -5.68873,-0.23427 -4.050811,4.37537 -9.378177,8.37631 -13.814568,6.15249 -2.710322,-3.417 -6.161068,-4.30044 -8.201387,-7.67847 -3.207711,-0.65626 -4.489253,3.63639 -8.804739,-0.43157 -2.686315,-2.53223 -6.518955,-3.80514 -5.640745,-7.8606 -2.398378,-0.60024 -4.765344,1.02484 -7.552452,-1.28858 -2.787118,-2.31341 -3.789718,-7.747663 -4.465348,-8.394163 -5.093994,3.753593 -8.394792,-3.518335 -10.156441,-8.020703 -0.414664,-3.321987 3.028794,-7.305137 3.410715,-10.569389 3.214622,-2.927027 4.071756,-11.981525 7.010468,-20.577928 2.882756,-8.432736 12.376437,-19.086454 18.378267,-23.544498 4.616354,-5.571937 2.438749,-7.343801 5.390664,-13.908957 2.182291,-4.8535 3.468193,-9.707355 6.975883,-17.0784749 L 105.78758,-51.419867"
       id="path2996"
       inkscape:connector-curvature="0"
       sodipodi:nodetypes="cscscccscscccccccccc" />
    <path
       style="fill:#000000;fill-opacity:1;fill-rule:nonzero;stroke:#000000;stroke-width:0.62199998000000001;stroke-linejoin:miter;stroke-miterlimit:4;stroke-opacity:1;stroke-dashoffset:0"
       d="m -108.08632,213.93558 291.93408,0 -44.44671,273.75134 -199.000048,0 z"
       id="rect3002"
       inkscape:connector-curvature="0"
       sodipodi:nodetypes="ccccc" />
    <path
       sodipodi:type="arc"
       style="fill:none;stroke:#000000;stroke-width:30;stroke-linejoin:miter;stroke-miterlimit:4;stroke-opacity:1;stroke-dasharray:none;stroke-dashoffset:0"
       id="path3005"
       sodipodi:cx="35.355339"
       sodipodi:cy="175.54977"
       sodipodi:rx="105.05586"
       sodipodi:ry="156.57364"
       d="m 140.4112,175.54977 a 105.05586,156.57364 0 1 1 -210.111723,0 105.05586,156.57364 0 1 1 210.111723,0 z"
       transform="translate(6.0609153,50.507627)" />
    <path
       sodipodi:nodetypes="cscscccscscccccccccc"
       inkscape:connector-curvature="0"
       id="path3775"
       d="m -167.47866,96.767905 34.74483,13.946675 c 15.44813,7.28152 34.34171,14.58123 49.44802,18.26074 6.11669,-3.7571 11.51366,-4.73499 18.03622,-7.72491 5.78278,-1.58752 9.37422,-7.82648 15.337862,-4.77494 6.492028,0.92217 12.838502,2.9904 18.988569,5.31131 3.591732,1.85388 6.77363,6.1817 9.994377,9.17529 0.768857,2.87 -4.85597,5.46 0.02962,5.69348 4.558393,3.84367 8.801927,8.9799 6.786098,13.51458 -3.287725,2.86577 -4.010291,6.35375 -7.290141,8.54843 -0.506897,3.23468 3.840526,4.31591 -0.02306,8.81528 -2.40502,2.80078 -3.498951,6.6883 -7.590736,5.99897 -0.488462,2.42362 1.244569,4.71274 -0.937198,7.60406 -2.181762,2.89133 -7.563697,4.1447 -8.178196,4.84956 3.985632,4.91456 -3.125506,8.54882 -7.541405,10.51725 -3.299201,0.56816 -7.437661,-2.687 -10.716101,-2.91723 -3.07285,-3.07552 -12.15735,-3.51212 -20.88071,-6.04928 -8.55727,-2.48886 -19.63951,-11.47861 -24.370919,-17.26738 -5.77988,-4.35318 -7.44892,-2.0958 -14.14383,-4.74028 -4.94942,-1.95503 -9.85765,-3.0146 -17.38341,-6.17692 l -55.86803,-20.69161"
       style="fill:#000000;stroke:#000000;stroke-width:0.46555015px;stroke-linecap:butt;stroke-linejoin:miter;stroke-opacity:1" />
    <path
       style="fill:#000000;stroke:#000000;stroke-width:0.46555015px;stroke-linecap:butt;stroke-linejoin:miter;stroke-opacity:1"
       d="m -59.369193,-37.331958 20.00963,31.6437659 c 8.26417,14.945532 19.31138,31.9223391 29.4065603,43.7471791 7.15856,0.53357 12.10695,2.89938 19.14558,4.29255 5.6180197,2.09731 12.1815897,-0.85946 15.2311297,5.1052 4.72423,4.54737 8.65968,9.93879 12.28799,15.42016 1.82726,3.60534 1.87429,8.97677 2.7337,13.2891 -1.05633,2.77709 -7.13299,1.58507 -3.30824,4.6338 1.44648,5.7845 1.88118,12.43277 -2.40737,14.92982 -4.34306,0.39944 -6.97038,2.80471 -10.91428,2.66461 -2.3042,2.326123 0.58803,5.747263 -5.17807,7.134243 -3.58931,0.86337 -6.75157,3.37525 -9.6658797,0.42149 -1.81455,1.67927 -1.74912,4.54966 -5.21039,5.61711 -3.46128005,1.06746 -8.5587,-1.06619 -9.46949,-0.85432 0.35531,6.3176 -7.5376903,5.1024 -12.2703303,4.11394 -3.00763,-1.47026 -4.45807,-6.53179 -6.98159,-8.63727 -0.69154,-4.2922 -7.80203,-9.963153 -13.39029,-17.125943 -5.48186,-7.02642 -9.20623,-20.80178 -9.65458,-28.2647 -2.13871,-6.91253 -4.81322,-6.05902 -8.69393,-12.12162 -2.86893,-4.48198 -6.22855,-8.21379 -10.47986,-15.18256 l -33.189387,-49.475685"
       id="path3777"
       inkscape:connector-curvature="0"
       sodipodi:nodetypes="cscscccscscccccccccc" />
    <path
       sodipodi:nodetypes="cscscccscscccccccccc"
       inkscape:connector-curvature="0"
       id="path3779"
       d="m 255.93485,94.581278 -31.88009,19.630942 c -15.043,8.08539 -32.15031,18.9294 -44.09467,28.88288 -0.61888,7.1517 -3.04352,12.07153 -4.52051,19.09305 -2.16414,5.59261 0.71417,12.19097 -5.28643,15.16917 -4.60337,4.66968 -10.04133,8.54058 -15.56556,12.10327 -3.62688,1.78416 -8.99848,1.76714 -13.32076,2.57508 -2.76429,-1.08936 -1.49991,-7.15139 -4.59402,-3.36326 -5.80134,1.37742 -12.45431,1.73281 -14.90006,-2.5852 -0.34763,-4.34752 -2.72141,-7.00331 -2.5343,-10.94527 -2.29847,-2.33177 -5.75385,0.51946 -7.07199,-5.26277 -0.82051,-3.59934 -3.29451,-6.79133 -0.30622,-9.67022 -1.65751,-1.83444 -4.52849,-1.80323 -5.55459,-5.27699 -1.02611,-3.47375 1.16816,-8.54537 0.96716,-9.45863 -6.32138,0.27996 -5.01217,-7.59799 -3.96735,-12.3185 1.50601,-2.98989 6.58448,-4.37988 8.71989,-6.87812 4.30014,-0.64032 10.05546,-7.68269 17.28437,-13.18515 7.09128,-5.39769 20.91007,-8.95756 28.3778,-9.31691 6.93754,-2.05614 6.11597,-4.740632 12.22442,-8.548792 4.51586,-2.81528 8.28746,-6.13017 15.30642,-10.29809 l 49.86787,-32.59716"
       style="fill:#000000;stroke:#000000;stroke-width:0.46555015px;stroke-linecap:butt;stroke-linejoin:miter;stroke-opacity:1" />
  </g>
</svg>
